{"title":"Star.Trek.Into.Darkness.2013.CAM.FULL.XViD-FANTA","uid":8481187,"size":1363734202,"categoryP":"video","categoryS":"movies","magnet":"?xt=urn:btih:379969d20b87cb46ec5bd8d156d205f228ef85b6&amp;dn=Star.Trek.Into.Darkness.2013.CAM.FULL.XViD-FANTA&amp;tr=udp%3A%2F%2Ftracker.openbittorrent.com%3A80&amp;tr=udp%3A%2F%2Fopen.demonii.com%3A1337&amp;tr=udp%3A%2F%2Ftracker.coppersurfer.tk%3A6969&amp;tr=udp%3A%2F%2Fexodus.desync.com%3A6969","seeders":1,"leechers":0,"uploader":"xxxlavalxxx","files":3,"time":1368740211,"description":" &lt;a href=&quot;\nhttp://www.imdb.com/title/tt1408101/&quot; rel=&quot;nofollow&quot; target=&quot;_NEW&quot;&gt;\nhttp://www.imdb.com/title/tt1408101/&lt;/a&gt;\n\n\nAfter the crew of the Enterprise find an unstoppable force of terror from within their own organization, Captain Kirk leads a manhunt to a war-zone world to capture a one man weapon of mass destruction. \n\n\n\nDirector:\n J.J. Abrams \n\nWriters:\n Roberto Orci, Alex Kurtzman\n\nStars:\n Chris Pine, Zachary Quinto, Zoe Saldana\n\nGenres:\n  Action |  Adventure |  Sci-Fi \n\nCountry:\n USA \n\nLanguage:\n English | Klingon \n\n\n\n\n\nFormat                                   : AVI\nFormat/Info                              : Audio Video Interleave\nFormat profile                           : OpenDML\nFormat settings                          : rec\nFile size                                : 1.27 GiB\nDuration                                 : 2h 10mn\nOverall bit rate                         : 1 398 Kbps\nWriting application                      : AVI-Mux GUI 1.17.8.3, Feb 16 201019:42:50\n\nVideo\nID                                       : 0\nFormat                                   : MPEG-4 Visual\nFormat profile                           : Simple@L1\nFormat settings, BVOP                    : No\nFormat settings, QPel                    : No\nFormat settings, GMC                     : No warppoints\nFormat settings, Matrix                  : Default (H.263)\nCodec ID                                 : XVID\nCodec ID/Hint                            : XviD\nDuration                                 : 2h 10mn\nBit rate                                 : 1 200 Kbps\nWidth                                    : 720 pixels\nHeight                                   : 304 pixels\nDisplay aspect ratio                     : 16:9\nFrame rate                               : 25.000 fps\nColor space                              : YUV\nChroma subsampling                       : 4:2:0\nBit depth                                : 8 bits\nScan type                                : Progressive\nCompression mode                         : Lossy\nBits/(Pixel*Frame)                       : 0.219\nStream size                              : 1.09 GiB (86%)\nWriting library                          : Lavc52.66.0\n\nAudio\nID                                       : 1\nFormat                                   : AC-3\nFormat/Info                              : Audio Coding 3\nMode extension                           : CM (complete main)\nFormat settings, Endianness              : Big\nCodec ID                                 : 2000\nDuration                                 : 2h 10mn\nBit rate mode                            : Constant\nBit rate                                 : 192 Kbps\nChannel(s)                               : 2 channels\nChannel positions                        : Front: L R\nSampling rate                            : 48.0 KHz\nBit depth                                : 16 bits\nCompression mode                         : Lossy\nStream size                              : 179 MiB (14%)\nAlignment                                : Aligned on interleaves\nInterleave, duration                     : 64 ms (1.60 video frames)\nInterleave, preload duration             : 192 ms\nTitle                                    : Star Trek-audio\n\n\ninfo\n &lt;a href=&quot;\nhttp://addpix.net/viewer.php?file=52506647984004253985.png&quot; rel=&quot;nofollow&quot; target=&quot;_NEW&quot;&gt;\nhttp://addpix.net/viewer.php?file=52506647984004253985.png&lt;/a&gt;\n\n\n\n\nscreens\n\n\n    &lt;a href=&quot;\thttp://addpix.net/viewer.php?file=41335256331555601569.jpg&quot; rel=&quot;nofollow&quot; target=&quot;_NEW&quot;&gt;\thttp://addpix.net/viewer.php?file=41335256331555601569.jpg&lt;/a&gt;\n    &lt;a href=&quot;\thttp://addpix.net/viewer.php?file=71282511361533568665.jpg&quot; rel=&quot;nofollow&quot; target=&quot;_NEW&quot;&gt;\thttp://addpix.net/viewer.php?file=71282511361533568665.jpg&lt;/a&gt;\n    &lt;a href=&quot;\thttp://addpix.net/viewer.php?file=10696975521148876831.jpg&quot; rel=&quot;nofollow&quot; target=&quot;_NEW&quot;&gt;\thttp://addpix.net/viewer.php?file=10696975521148876831.jpg&lt;/a&gt;\n    &lt;a href=&quot;\thttp://addpix.net/viewer.php?file=50737487000972438159.jpg&quot; rel=&quot;nofollow&quot; target=&quot;_NEW&quot;&gt;\thttp://addpix.net/viewer.php?file=50737487000972438159.jpg&lt;/a&gt;\n    &lt;a href=&quot;\thttp://addpix.net/viewer.php?file=94630281979765140953.jpg&quot; rel=&quot;nofollow&quot; target=&quot;_NEW&quot;&gt;\thttp://addpix.net/viewer.php?file=94630281979765140953.jpg&lt;/a&gt;","torrent":{"xt":"urn:btih:379969d20b87cb46ec5bd8d156d205f228ef85b6","amp;dn":"Star.Trek.Into.Darkness.2013.CAM.FULL.XViD-FANTA","amp;tr":["udp%3A%2F%2Ftracker.openbittorrent.com%3A80","udp%3A%2F%2Fopen.demonii.com%3A1337","udp%3A%2F%2Ftracker.coppersurfer.tk%3A6969","udp%3A%2F%2Fexodus.desync.com%3A6969"],"infoHash":"379969d20b87cb46ec5bd8d156d205f228ef85b6","infoHashBuffer":{"type":"Buffer","data":[55,153,105,210,11,135,203,70,236,91,216,209,86,210,5,242,40,239,133,182]},"announce":[],"urlList":[]}}